<?xml version="1.0" encoding="iso-8859-1"?>
<!-- Generator: Adobe Illustrator 19.0.0, SVG Export Plug-In . SVG Version: 6.00 Build 0)  -->
<svg version="1.1" id="Capa_1" xmlns="http://www.w3.org/2000/svg" xmlns:xlink="http://www.w3.org/1999/xlink" x="0px" y="0px"
	 viewBox="0 0 511.999 511.999" style="enable-background:new 0 0 511.999 511.999;" xml:space="preserve">
<path style="fill:#50C4DF;" d="M455.185,16.645c0-11.031-10.541-19.007-21.157-16.009L171.961,74.654
	c-12.027,3.398-20.333,14.373-20.333,26.871v283.756c-8.588-4.043-18.175-6.315-28.297-6.315c-36.736,0-66.517,29.78-66.517,66.517
	s29.78,66.517,66.517,66.517c36.325,0,65.831-29.123,66.486-65.293h0.031V184.211l0,0l227.117-64.146l0,0v190.274
	c-8.588-4.043-18.175-6.315-28.297-6.315c-36.736,0-66.517,29.78-66.517,66.517s29.78,66.517,66.517,66.517
	c36.325,0,65.831-29.123,66.486-65.293h0.031V16.645H455.185z"/>
<g>
	<path style="fill:#1AA5C4;" d="M417.514,420.576c-36.736,0-66.517-29.78-66.517-66.517c0-18.71,7.737-35.605,20.171-47.69
		c-28.242,7.685-49.016,33.496-49.016,64.173c0,36.736,29.78,66.517,66.517,66.517c18.029,0,34.373-7.179,46.349-18.829
		C429.438,419.748,423.574,420.576,417.514,420.576z"/>
	<path style="fill:#1AA5C4;" d="M152.176,495.517c-36.736,0-66.517-29.78-66.517-66.517c0-18.71,7.736-35.605,20.171-47.69
		c-28.242,7.685-49.016,33.496-49.016,64.173c0,36.736,29.78,66.517,66.517,66.517c18.029,0,34.374-7.179,46.349-18.829
		C164.101,494.689,158.238,495.517,152.176,495.517z"/>
</g>
<g>
</g>
<g>
</g>
<g>
</g>
<g>
</g>
<g>
</g>
<g>
</g>
<g>
</g>
<g>
</g>
<g>
</g>
<g>
</g>
<g>
</g>
<g>
</g>
<g>
</g>
<g>
</g>
<g>
</g>
</svg>
