<svg id="Capa_1" enable-background="new 0 0 512 512" height="512" viewBox="0 0 512 512" width="512" xmlns="http://www.w3.org/2000/svg"><g><g><g><path d="m408.805 510.477c-5.863 0-11.514-3.214-14.357-8.797l-125.879-247.263-125.879 247.263c-4.033 7.921-13.725 11.073-21.645 7.042-7.922-4.033-11.074-13.724-7.042-21.645l140.223-275.437c2.746-5.395 8.288-8.793 14.343-8.793s11.597 3.398 14.343 8.793l140.223 275.437c4.033 7.921.88 17.612-7.042 21.645-2.338 1.19-4.832 1.755-7.288 1.755z" fill="#dfdfdf"/></g></g><g><g><path d="m423.135 487.077-140.223-275.438c-2.746-5.395-8.288-8.793-14.343-8.793-2.424 0-4.761.552-6.874 1.552 2.135 1.487 3.919 3.493 5.145 5.9l140.223 275.437c4.033 7.921.88 17.612-7.042 21.645-.147.075-.299.125-.448.195 2.702 1.884 5.933 2.901 9.231 2.901 2.456 0 4.95-.565 7.289-1.755 7.923-4.032 11.075-13.723 7.042-21.644z" fill="#ababab"/></g></g><g><g><path d="m268.569 510.473c-8.889 0-16.095-7.206-16.095-16.095v-275.437c0-8.889 7.206-16.095 16.095-16.095s16.095 7.206 16.095 16.095v275.437c0 8.889-7.206 16.095-16.095 16.095z" fill="#dfdfdf"/></g></g><g><path d="m268.569 202.846c-.025 0-.05.004-.075.004 1.371 2.368 2.169 5.11 2.169 8.044v275.437c0 8.864-7.166 16.05-16.02 16.091 2.784 4.808 7.971 8.051 13.926 8.051 8.889 0 16.095-7.206 16.095-16.095v-275.437c0-8.889-7.206-16.095-16.095-16.095z" fill="#ababab"/></g><g><path d="m88.695 239.05-41.963 18.568-41.308-93.353c-1.788-4.04.038-8.765 4.079-10.553l27.332-12.094c4.04-1.788 8.765.038 10.553 4.079z" fill="#dfdfdf"/></g><g><path d="m71.031 246.866 17.664-7.816-41.212-93.137c-1.841-4.16-6.705-6.04-10.864-4.199l-10.133 4.483z" fill="#ababab"/></g><g><path d="m241.067 205.417-211.731 93.688c-4.04 1.788-8.765-.038-10.553-4.079l-18.095-40.893c-1.788-4.04.038-8.765 4.079-10.553l211.731-93.689z" fill="#595959"/></g><g><path d="m40.204 272.12c-4.335 1.918-9.405-.041-11.323-4.376l-12.89-29.131-11.228 4.968c-4.038 1.787-5.863 6.509-4.076 10.547l18.099 40.902c1.787 4.038 6.509 5.863 10.547 4.076l211.735-93.691-8.206-18.545z" fill="#434343"/></g><g><path d="m447.483 139.157-218.103 96.508c-5.05 2.235-10.956-.048-13.191-5.098l-35.036-79.179c-2.235-5.051.048-10.956 5.098-13.191l219.018-96.913c5.051-2.235 10.956.048 13.191 5.098l34.631 78.265c2.458 5.556-.053 12.052-5.608 14.51z" fill="#595959"/></g><g><path d="m446.468 109.679-237.308 105.006 7.03 15.887c2.234 5.048 8.136 7.329 13.184 5.095l218.355-96.62c5.419-2.398 7.868-8.735 5.47-14.154z" fill="#434343"/></g><g><path d="m506.638 132.634-83.648 37.013c-4.545 2.011-9.861-.043-11.872-4.588l-49.985-112.963c-2.235-5.05.048-10.956 5.098-13.191l82.734-36.609c4.545-2.011 9.861.043 11.872 4.588l50.389 113.877c2.012 4.547-.043 9.862-4.588 11.873z" fill="#dfdfdf"/></g><g><path d="m511.228 120.767-50.393-113.887c-2.01-4.543-7.323-6.596-11.866-4.586l-16.698 7.389 42.042 95.011c2.398 5.419-.051 11.756-5.47 14.154l-65.372 28.927 7.65 17.288c2.01 4.543 7.323 6.596 11.866 4.586l83.657-37.017c4.541-2.01 6.595-7.322 4.584-11.865z" fill="#ababab"/></g><g><circle cx="166.094" cy="256.358" fill="#fbd307" r="27.904"/></g><g><path d="m191.612 245.067c-2.953-6.673-8.204-11.611-14.41-14.303 6.101 14.053-.27 30.417-14.302 36.626-7.42 3.283-15.499 3.068-22.399.076.026.061.049.122.076.183 6.236 14.093 22.716 20.462 36.809 14.226 14.092-6.235 20.462-22.715 14.226-36.808z" fill="#e6b700"/></g></g></svg>